<svg xmlns="http://www.w3.org/2000/svg" xmlns:xlink="http://www.w3.org/1999/xlink" width="40" zoomAndPan="magnify" viewBox="0 0 30 30.000001" height="40" preserveAspectRatio="xMidYMid meet" version="1.0"><defs><g/><clipPath id="88e4b88424"><path d="M 0.484375 0 L 29.515625 0 L 29.515625 29.03125 L 0.484375 29.03125 Z M 0.484375 0 " clip-rule="nonzero"/></clipPath><clipPath id="3b966da1ba"><path d="M 0.484375 0 L 28 0 L 28 29 L 0.484375 29 Z M 0.484375 0 " clip-rule="nonzero"/></clipPath><clipPath id="6c5833d7a0"><path d="M 2.585938 2.902344 L 25.570312 2.902344 L 25.570312 25.882812 L 2.585938 25.882812 Z M 2.585938 2.902344 " clip-rule="nonzero"/></clipPath><clipPath id="cc7f309617"><path d="M 14.078125 2.902344 C 7.730469 2.902344 2.585938 8.046875 2.585938 14.394531 C 2.585938 20.738281 7.730469 25.882812 14.078125 25.882812 C 20.425781 25.882812 25.570312 20.738281 25.570312 14.394531 C 25.570312 8.046875 20.425781 2.902344 14.078125 2.902344 Z M 14.078125 2.902344 " clip-rule="nonzero"/></clipPath><clipPath id="ba4391345b"><path d="M 0.585938 0.902344 L 23.570312 0.902344 L 23.570312 23.882812 L 0.585938 23.882812 Z M 0.585938 0.902344 " clip-rule="nonzero"/></clipPath><clipPath id="9de940fa23"><path d="M 12.078125 0.902344 C 5.730469 0.902344 0.585938 6.046875 0.585938 12.394531 C 0.585938 18.738281 5.730469 23.882812 12.078125 23.882812 C 18.425781 23.882812 23.570312 18.738281 23.570312 12.394531 C 23.570312 6.046875 18.425781 0.902344 12.078125 0.902344 Z M 12.078125 0.902344 " clip-rule="nonzero"/></clipPath><clipPath id="58632e1980"><rect x="0" width="24" y="0" height="24"/></clipPath><clipPath id="154a2c9beb"><path d="M 0.484375 0.921875 L 27.65625 0.921875 L 27.65625 28.097656 L 0.484375 28.097656 Z M 0.484375 0.921875 " clip-rule="nonzero"/></clipPath><clipPath id="5219dd316f"><path d="M 11 2 L 14.691406 2 L 14.691406 7 L 11 7 Z M 11 2 " clip-rule="nonzero"/></clipPath><clipPath id="e090dbf3d6"><rect x="0" width="15" y="0" height="9"/></clipPath><clipPath id="5f96657d41"><rect x="0" width="28" y="0" height="29"/></clipPath></defs><g clip-path="url(#88e4b88424)"><path fill="#ffffff" d="M 0.484375 0 L 29.515625 0 L 29.515625 29.03125 L 0.484375 29.03125 Z M 0.484375 0 " fill-opacity="1" fill-rule="nonzero"/><path fill="#ffffff" d="M 0.484375 0 L 29.515625 0 L 29.515625 29.03125 L 0.484375 29.03125 Z M 0.484375 0 " fill-opacity="1" fill-rule="nonzero"/></g><g clip-path="url(#3b966da1ba)"><g transform="matrix(1, 0, 0, 1, 0, 0.000000000000005773)"><g clip-path="url(#5f96657d41)"><g clip-path="url(#6c5833d7a0)"><g clip-path="url(#cc7f309617)"><g transform="matrix(1, 0, 0, 1, 2, 2)"><g clip-path="url(#58632e1980)"><g clip-path="url(#ba4391345b)"><g clip-path="url(#9de940fa23)"><path fill="#000036" d="M 0.585938 0.902344 L 23.570312 0.902344 L 23.570312 23.882812 L 0.585938 23.882812 Z M 0.585938 0.902344 " fill-opacity="1" fill-rule="nonzero"/></g></g></g></g></g></g><g clip-path="url(#154a2c9beb)"><path fill="#ff5e84" d="M 22.996094 23.4375 C 21.839844 24.59375 20.488281 25.503906 18.988281 26.140625 C 17.433594 26.796875 15.78125 27.132812 14.078125 27.132812 C 12.375 27.132812 10.722656 26.796875 9.167969 26.140625 C 7.664062 25.503906 6.316406 24.59375 5.15625 23.4375 C 4 22.277344 3.089844 20.929688 2.453125 19.425781 C 1.796875 17.871094 1.460938 16.21875 1.460938 14.515625 C 1.460938 12.8125 1.796875 11.160156 2.453125 9.605469 C 3.089844 8.105469 4 6.753906 5.15625 5.597656 C 6.316406 4.4375 7.664062 3.527344 9.167969 2.890625 C 10.722656 2.234375 12.375 1.902344 14.078125 1.902344 C 15.78125 1.902344 17.433594 2.234375 18.988281 2.890625 C 20.488281 3.527344 21.839844 4.4375 22.996094 5.597656 C 24.15625 6.753906 25.066406 8.105469 25.703125 9.605469 C 26.359375 11.160156 26.691406 12.8125 26.691406 14.515625 C 26.691406 16.21875 26.359375 17.871094 25.703125 19.425781 C 25.066406 20.929688 24.15625 22.277344 22.996094 23.4375 Z M 14.078125 0.921875 C 6.570312 0.921875 0.484375 7.007812 0.484375 14.515625 C 0.484375 22.023438 6.570312 28.109375 14.078125 28.109375 C 21.585938 28.109375 27.671875 22.023438 27.671875 14.515625 C 27.671875 7.007812 21.585938 0.921875 14.078125 0.921875 " fill-opacity="1" fill-rule="nonzero"/></g><path fill="#f8f3ec" d="M 24.800781 19.042969 C 24.214844 20.429688 23.375 21.675781 22.304688 22.746094 C 21.238281 23.8125 19.992188 24.652344 18.605469 25.238281 C 17.171875 25.84375 15.648438 26.152344 14.078125 26.152344 C 12.507812 26.152344 10.980469 25.84375 9.550781 25.238281 C 8.164062 24.652344 6.917969 23.8125 5.847656 22.746094 C 4.78125 21.675781 3.941406 20.429688 3.355469 19.042969 C 2.75 17.613281 2.441406 16.085938 2.441406 14.515625 C 2.441406 12.945312 2.75 11.421875 3.355469 9.988281 C 3.941406 8.601562 4.78125 7.355469 5.847656 6.289062 C 6.917969 5.21875 8.164062 4.378906 9.550781 3.792969 C 10.980469 3.1875 12.507812 2.878906 14.078125 2.878906 C 15.648438 2.878906 17.171875 3.1875 18.605469 3.792969 C 19.992188 4.378906 21.238281 5.21875 22.304688 6.289062 C 23.375 7.355469 24.214844 8.601562 24.800781 9.988281 C 25.40625 11.421875 25.714844 12.945312 25.714844 14.515625 C 25.714844 16.085938 25.40625 17.613281 24.800781 19.042969 Z M 25.703125 9.605469 C 25.066406 8.105469 24.15625 6.753906 22.996094 5.597656 C 21.839844 4.4375 20.488281 3.527344 18.988281 2.890625 C 17.433594 2.234375 15.78125 1.902344 14.078125 1.902344 C 12.375 1.902344 10.722656 2.234375 9.167969 2.890625 C 7.664062 3.527344 6.316406 4.4375 5.15625 5.597656 C 4 6.753906 3.089844 8.105469 2.453125 9.605469 C 1.796875 11.160156 1.460938 12.8125 1.460938 14.515625 C 1.460938 16.21875 1.796875 17.871094 2.453125 19.425781 C 3.089844 20.929688 4 22.277344 5.15625 23.4375 C 6.316406 24.59375 7.664062 25.503906 9.167969 26.140625 C 10.722656 26.796875 12.375 27.132812 14.078125 27.132812 C 15.78125 27.132812 17.433594 26.796875 18.988281 26.140625 C 20.488281 25.503906 21.839844 24.59375 22.996094 23.4375 C 24.15625 22.277344 25.066406 20.929688 25.703125 19.425781 C 26.359375 17.871094 26.691406 16.21875 26.691406 14.515625 C 26.691406 12.8125 26.359375 11.160156 25.703125 9.605469 " fill-opacity="1" fill-rule="nonzero"/><path fill="#5c998e" d="M 23.898438 18.664062 C 23.363281 19.933594 22.59375 21.074219 21.613281 22.050781 C 20.632812 23.03125 19.492188 23.800781 18.226562 24.335938 C 16.914062 24.890625 15.519531 25.171875 14.078125 25.171875 C 12.636719 25.171875 11.242188 24.890625 9.929688 24.335938 C 8.660156 23.800781 7.519531 23.03125 6.542969 22.050781 C 5.5625 21.074219 4.792969 19.933594 4.257812 18.664062 C 3.703125 17.351562 3.421875 15.957031 3.421875 14.515625 C 3.421875 13.074219 3.703125 11.679688 4.257812 10.367188 C 4.792969 9.101562 5.5625 7.960938 6.542969 6.980469 C 7.519531 6 8.660156 5.230469 9.929688 4.695312 C 11.242188 4.140625 12.636719 3.859375 14.078125 3.859375 C 15.519531 3.859375 16.914062 4.140625 18.226562 4.695312 C 19.492188 5.230469 20.632812 6 21.613281 6.980469 C 22.59375 7.960938 23.363281 9.101562 23.898438 10.367188 C 24.453125 11.679688 24.734375 13.074219 24.734375 14.515625 C 24.734375 15.957031 24.453125 17.351562 23.898438 18.664062 Z M 24.800781 9.988281 C 24.214844 8.601562 23.375 7.355469 22.304688 6.289062 C 21.238281 5.21875 19.992188 4.378906 18.605469 3.792969 C 17.171875 3.1875 15.648438 2.878906 14.078125 2.878906 C 12.507812 2.878906 10.980469 3.1875 9.550781 3.792969 C 8.164062 4.378906 6.917969 5.21875 5.847656 6.289062 C 4.78125 7.355469 3.941406 8.601562 3.355469 9.988281 C 2.75 11.421875 2.441406 12.945312 2.441406 14.515625 C 2.441406 16.085938 2.75 17.613281 3.355469 19.042969 C 3.941406 20.429688 4.78125 21.675781 5.847656 22.746094 C 6.917969 23.8125 8.164062 24.652344 9.550781 25.238281 C 10.980469 25.84375 12.507812 26.152344 14.078125 26.152344 C 15.648438 26.152344 17.171875 25.84375 18.605469 25.238281 C 19.992188 24.652344 21.238281 23.8125 22.304688 22.746094 C 23.375 21.675781 24.214844 20.429688 24.800781 19.042969 C 25.40625 17.613281 25.714844 16.085938 25.714844 14.515625 C 25.714844 12.945312 25.40625 11.421875 24.800781 9.988281 " fill-opacity="1" fill-rule="nonzero"/><path fill="#ff5e84" d="M 22.996094 18.28125 C 22.511719 19.433594 21.8125 20.46875 20.921875 21.359375 C 20.03125 22.25 18.996094 22.949219 17.84375 23.4375 C 16.652344 23.941406 15.386719 24.195312 14.078125 24.195312 C 12.769531 24.195312 11.503906 23.941406 10.3125 23.4375 C 9.160156 22.949219 8.125 22.25 7.234375 21.359375 C 6.34375 20.46875 5.644531 19.433594 5.15625 18.28125 C 4.652344 17.089844 4.398438 15.824219 4.398438 14.515625 C 4.398438 13.207031 4.652344 11.941406 5.15625 10.75 C 5.644531 9.597656 6.34375 8.5625 7.234375 7.671875 C 8.125 6.78125 9.160156 6.082031 10.3125 5.597656 C 11.503906 5.09375 12.769531 4.835938 14.078125 4.835938 C 15.386719 4.835938 16.652344 5.09375 17.84375 5.597656 C 18.996094 6.082031 20.03125 6.78125 20.921875 7.671875 C 21.8125 8.5625 22.511719 9.597656 22.996094 10.75 C 23.5 11.941406 23.757812 13.207031 23.757812 14.515625 C 23.757812 15.824219 23.5 17.089844 22.996094 18.28125 Z M 21.613281 6.980469 C 20.632812 6 19.492188 5.230469 18.226562 4.695312 C 16.914062 4.140625 15.519531 3.859375 14.078125 3.859375 C 12.636719 3.859375 11.242188 4.140625 9.929688 4.695312 C 8.660156 5.230469 7.519531 6 6.542969 6.980469 C 5.5625 7.960938 4.792969 9.101562 4.257812 10.367188 C 3.703125 11.679688 3.421875 13.074219 3.421875 14.515625 C 3.421875 15.957031 3.703125 17.351562 4.257812 18.664062 C 4.792969 19.933594 5.5625 21.074219 6.542969 22.050781 C 7.519531 23.03125 8.660156 23.800781 9.929688 24.335938 C 11.242188 24.890625 12.636719 25.171875 14.078125 25.171875 C 15.519531 25.171875 16.914062 24.890625 18.226562 24.335938 C 19.492188 23.800781 20.632812 23.03125 21.613281 22.050781 C 22.59375 21.074219 23.363281 19.933594 23.898438 18.664062 C 24.453125 17.351562 24.734375 15.957031 24.734375 14.515625 C 24.734375 13.074219 24.453125 11.679688 23.898438 10.367188 C 23.363281 9.101562 22.59375 7.960938 21.613281 6.980469 " fill-opacity="1" fill-rule="nonzero"/><path fill="#bde1c9" d="M 22.097656 17.902344 C 21.65625 18.9375 21.03125 19.867188 20.230469 20.667969 C 19.429688 21.46875 18.5 22.097656 17.460938 22.535156 C 16.394531 22.988281 15.253906 23.214844 14.078125 23.214844 C 12.902344 23.214844 11.761719 22.988281 10.691406 22.535156 C 9.65625 22.097656 8.726562 21.46875 7.925781 20.667969 C 7.125 19.867188 6.496094 18.9375 6.058594 17.902344 C 5.605469 16.832031 5.378906 15.691406 5.378906 14.515625 C 5.378906 13.339844 5.605469 12.199219 6.058594 11.132812 C 6.496094 10.09375 7.125 9.164062 7.925781 8.363281 C 8.726562 7.5625 9.65625 6.9375 10.691406 6.496094 C 11.761719 6.046875 12.902344 5.816406 14.078125 5.816406 C 15.253906 5.816406 16.394531 6.046875 17.460938 6.496094 C 18.5 6.9375 19.429688 7.5625 20.230469 8.363281 C 21.03125 9.164062 21.660156 10.09375 22.097656 11.132812 C 22.546875 12.199219 22.777344 13.339844 22.777344 14.515625 C 22.777344 15.691406 22.546875 16.832031 22.097656 17.902344 Z M 20.921875 7.671875 C 20.03125 6.78125 18.996094 6.082031 17.84375 5.597656 C 16.652344 5.09375 15.386719 4.835938 14.078125 4.835938 C 12.769531 4.835938 11.503906 5.09375 10.3125 5.597656 C 9.160156 6.082031 8.125 6.78125 7.234375 7.671875 C 6.34375 8.5625 5.644531 9.597656 5.15625 10.75 C 4.652344 11.941406 4.398438 13.207031 4.398438 14.515625 C 4.398438 15.824219 4.652344 17.089844 5.15625 18.28125 C 5.644531 19.433594 6.34375 20.46875 7.234375 21.359375 C 8.125 22.25 9.160156 22.949219 10.3125 23.4375 C 11.503906 23.941406 12.769531 24.195312 14.078125 24.195312 C 15.386719 24.195312 16.652344 23.941406 17.84375 23.4375 C 18.996094 22.949219 20.03125 22.25 20.921875 21.359375 C 21.8125 20.46875 22.511719 19.433594 22.996094 18.28125 C 23.5 17.089844 23.757812 15.824219 23.757812 14.515625 C 23.757812 13.207031 23.5 11.941406 22.996094 10.75 C 22.511719 9.597656 21.8125 8.5625 20.921875 7.671875 " fill-opacity="1" fill-rule="nonzero"/><g transform="matrix(1, 0, 0, 1, 6, 10)"><g clip-path="url(#e090dbf3d6)"><g fill="#ff5e84" fill-opacity="1"><g transform="translate(1.237133, 6.358284)"><g><path d="M 5.890625 -4.03125 L 4.84375 0 L 3.65625 0 L 3.015625 -2.65625 L 2.34375 0 L 1.171875 0 L 0.140625 -4.03125 L 1.1875 -4.03125 L 1.765625 -1.09375 L 2.484375 -4.03125 L 3.5625 -4.03125 L 4.25 -1.09375 L 4.84375 -4.03125 Z M 5.890625 -4.03125 "/></g></g></g><g fill="#ff5e84" fill-opacity="1"><g transform="translate(7.2771, 6.358284)"><g><path d="M 1.8125 0.046875 C 1.519531 0.046875 1.253906 0 1.015625 -0.09375 C 0.785156 -0.195312 0.597656 -0.34375 0.453125 -0.53125 C 0.316406 -0.71875 0.242188 -0.941406 0.234375 -1.203125 L 1.28125 -1.203125 C 1.300781 -1.054688 1.351562 -0.941406 1.4375 -0.859375 C 1.53125 -0.785156 1.644531 -0.75 1.78125 -0.75 C 1.925781 -0.75 2.039062 -0.78125 2.125 -0.84375 C 2.207031 -0.914062 2.25 -1.007812 2.25 -1.125 C 2.25 -1.21875 2.210938 -1.296875 2.140625 -1.359375 C 2.078125 -1.429688 2 -1.488281 1.90625 -1.53125 C 1.8125 -1.570312 1.671875 -1.617188 1.484375 -1.671875 C 1.222656 -1.753906 1.007812 -1.832031 0.84375 -1.90625 C 0.6875 -1.988281 0.546875 -2.109375 0.421875 -2.265625 C 0.304688 -2.421875 0.25 -2.628906 0.25 -2.890625 C 0.25 -3.265625 0.382812 -3.554688 0.65625 -3.765625 C 0.925781 -3.972656 1.28125 -4.078125 1.71875 -4.078125 C 2.164062 -4.078125 2.523438 -3.972656 2.796875 -3.765625 C 3.066406 -3.554688 3.210938 -3.257812 3.234375 -2.875 L 2.171875 -2.875 C 2.160156 -3.007812 2.109375 -3.113281 2.015625 -3.1875 C 1.929688 -3.257812 1.820312 -3.296875 1.6875 -3.296875 C 1.570312 -3.296875 1.476562 -3.265625 1.40625 -3.203125 C 1.332031 -3.140625 1.296875 -3.050781 1.296875 -2.9375 C 1.296875 -2.800781 1.351562 -2.695312 1.46875 -2.625 C 1.59375 -2.550781 1.785156 -2.472656 2.046875 -2.390625 C 2.304688 -2.304688 2.515625 -2.222656 2.671875 -2.140625 C 2.835938 -2.054688 2.976562 -1.9375 3.09375 -1.78125 C 3.21875 -1.632812 3.28125 -1.441406 3.28125 -1.203125 C 3.28125 -0.972656 3.222656 -0.765625 3.109375 -0.578125 C 2.992188 -0.390625 2.820312 -0.238281 2.59375 -0.125 C 2.375 -0.0078125 2.113281 0.046875 1.8125 0.046875 Z M 1.8125 0.046875 "/></g></g></g><g clip-path="url(#5219dd316f)"><g fill="#ff5e84" fill-opacity="1"><g transform="translate(10.808071, 6.358284)"><g><path d="M 1.8125 0.046875 C 1.519531 0.046875 1.253906 0 1.015625 -0.09375 C 0.785156 -0.195312 0.597656 -0.34375 0.453125 -0.53125 C 0.316406 -0.71875 0.242188 -0.941406 0.234375 -1.203125 L 1.28125 -1.203125 C 1.300781 -1.054688 1.351562 -0.941406 1.4375 -0.859375 C 1.53125 -0.785156 1.644531 -0.75 1.78125 -0.75 C 1.925781 -0.75 2.039062 -0.78125 2.125 -0.84375 C 2.207031 -0.914062 2.25 -1.007812 2.25 -1.125 C 2.25 -1.21875 2.210938 -1.296875 2.140625 -1.359375 C 2.078125 -1.429688 2 -1.488281 1.90625 -1.53125 C 1.8125 -1.570312 1.671875 -1.617188 1.484375 -1.671875 C 1.222656 -1.753906 1.007812 -1.832031 0.84375 -1.90625 C 0.6875 -1.988281 0.546875 -2.109375 0.421875 -2.265625 C 0.304688 -2.421875 0.25 -2.628906 0.25 -2.890625 C 0.25 -3.265625 0.382812 -3.554688 0.65625 -3.765625 C 0.925781 -3.972656 1.28125 -4.078125 1.71875 -4.078125 C 2.164062 -4.078125 2.523438 -3.972656 2.796875 -3.765625 C 3.066406 -3.554688 3.210938 -3.257812 3.234375 -2.875 L 2.171875 -2.875 C 2.160156 -3.007812 2.109375 -3.113281 2.015625 -3.1875 C 1.929688 -3.257812 1.820312 -3.296875 1.6875 -3.296875 C 1.570312 -3.296875 1.476562 -3.265625 1.40625 -3.203125 C 1.332031 -3.140625 1.296875 -3.050781 1.296875 -2.9375 C 1.296875 -2.800781 1.351562 -2.695312 1.46875 -2.625 C 1.59375 -2.550781 1.785156 -2.472656 2.046875 -2.390625 C 2.304688 -2.304688 2.515625 -2.222656 2.671875 -2.140625 C 2.835938 -2.054688 2.976562 -1.9375 3.09375 -1.78125 C 3.21875 -1.632812 3.28125 -1.441406 3.28125 -1.203125 C 3.28125 -0.972656 3.222656 -0.765625 3.109375 -0.578125 C 2.992188 -0.390625 2.820312 -0.238281 2.59375 -0.125 C 2.375 -0.0078125 2.113281 0.046875 1.8125 0.046875 Z M 1.8125 0.046875 "/></g></g></g></g></g></g></g></g></g></svg>