<svg xmlns="http://www.w3.org/2000/svg" xmlns:xlink="http://www.w3.org/1999/xlink" width="96" zoomAndPan="magnify" viewBox="0 0 72 72" height="96" preserveAspectRatio="xMidYMid meet" version="1.0"><defs><g/><clipPath id="dce97b1faf"><path d="M 5.214844 5.199219 L 62.210938 5.199219 L 62.210938 62.195312 L 5.214844 62.195312 Z M 5.214844 5.199219 " clip-rule="nonzero"/></clipPath><clipPath id="e816bdbd03"><path d="M 33.714844 5.199219 C 17.976562 5.199219 5.214844 17.957031 5.214844 33.695312 C 5.214844 49.433594 17.976562 62.195312 33.714844 62.195312 C 49.453125 62.195312 62.210938 49.433594 62.210938 33.695312 C 62.210938 17.957031 49.453125 5.199219 33.714844 5.199219 Z M 33.714844 5.199219 " clip-rule="nonzero"/></clipPath><clipPath id="5d9c11a881"><path d="M 0.214844 0.199219 L 57.210938 0.199219 L 57.210938 57.195312 L 0.214844 57.195312 Z M 0.214844 0.199219 " clip-rule="nonzero"/></clipPath><clipPath id="6fb14cfdaa"><path d="M 28.714844 0.199219 C 12.976562 0.199219 0.214844 12.957031 0.214844 28.695312 C 0.214844 44.433594 12.976562 57.195312 28.714844 57.195312 C 44.453125 57.195312 57.210938 44.433594 57.210938 28.695312 C 57.210938 12.957031 44.453125 0.199219 28.714844 0.199219 Z M 28.714844 0.199219 " clip-rule="nonzero"/></clipPath><clipPath id="bbdf385376"><rect x="0" width="58" y="0" height="58"/></clipPath><clipPath id="ca1b7d800e"><path d="M 0 0.285156 L 67.390625 0.285156 L 67.390625 67.679688 L 0 67.679688 Z M 0 0.285156 " clip-rule="nonzero"/></clipPath><clipPath id="dfb62cf4a6"><rect x="0" width="35" y="0" height="24"/></clipPath><clipPath id="34920b5856"><rect x="0" width="68" y="0" height="68"/></clipPath></defs><g transform="matrix(1, 0, 0, 1, 0, 2)"><g clip-path="url(#34920b5856)"><g clip-path="url(#dce97b1faf)"><g clip-path="url(#e816bdbd03)"><g transform="matrix(1, 0, 0, 1, 5, 5)"><g clip-path="url(#bbdf385376)"><g clip-path="url(#5d9c11a881)"><g clip-path="url(#6fb14cfdaa)"><path fill="#000036" d="M 0.214844 0.199219 L 57.210938 0.199219 L 57.210938 57.195312 L 0.214844 57.195312 Z M 0.214844 0.199219 " fill-opacity="1" fill-rule="nonzero"/></g></g></g></g></g></g><g clip-path="url(#ca1b7d800e)"><path fill="#ff5e84" d="M 55.835938 56.121094 C 52.960938 58.996094 49.613281 61.253906 45.890625 62.828125 C 42.035156 64.457031 37.9375 65.285156 33.710938 65.285156 C 29.488281 65.285156 25.390625 64.457031 21.535156 62.828125 C 17.8125 61.253906 14.464844 58.996094 11.589844 56.121094 C 8.714844 53.246094 6.460938 49.902344 4.886719 46.175781 C 3.253906 42.320312 2.425781 38.222656 2.425781 34 C 2.425781 29.773438 3.253906 25.679688 4.886719 21.824219 C 6.460938 18.097656 8.714844 14.75 11.589844 11.878906 C 14.464844 9.003906 17.8125 6.746094 21.535156 5.171875 C 25.390625 3.539062 29.488281 2.714844 33.710938 2.714844 C 37.9375 2.714844 42.035156 3.539062 45.890625 5.171875 C 49.613281 6.746094 52.960938 9.003906 55.835938 11.878906 C 58.707031 14.75 60.964844 18.097656 62.539062 21.824219 C 64.171875 25.679688 65 29.773438 65 34 C 65 38.222656 64.171875 42.320312 62.539062 46.175781 C 60.964844 49.902344 58.707031 53.246094 55.835938 56.121094 Z M 33.710938 0.285156 C 15.09375 0.285156 0 15.378906 0 34 C 0 52.617188 15.09375 67.710938 33.710938 67.710938 C 52.332031 67.710938 67.425781 52.617188 67.425781 34 C 67.425781 15.378906 52.332031 0.285156 33.710938 0.285156 " fill-opacity="1" fill-rule="nonzero"/></g><path fill="#f8f3ec" d="M 60.304688 45.230469 C 58.851562 48.667969 56.769531 51.753906 54.117188 54.40625 C 51.464844 57.058594 48.378906 59.140625 44.945312 60.59375 C 41.390625 62.09375 37.609375 62.859375 33.710938 62.859375 C 29.816406 62.859375 26.035156 62.09375 22.480469 60.59375 C 19.046875 59.140625 15.957031 57.058594 13.308594 54.40625 C 10.65625 51.753906 8.574219 48.667969 7.121094 45.230469 C 5.617188 41.675781 4.855469 37.898438 4.855469 34 C 4.855469 30.101562 5.617188 26.324219 7.121094 22.769531 C 8.574219 19.332031 10.65625 16.246094 13.308594 13.59375 C 15.957031 10.941406 19.046875 8.859375 22.480469 7.40625 C 26.035156 5.902344 29.816406 5.140625 33.710938 5.140625 C 37.609375 5.140625 41.390625 5.902344 44.945312 7.40625 C 48.378906 8.859375 51.464844 10.941406 54.117188 13.59375 C 56.769531 16.246094 58.851562 19.332031 60.304688 22.769531 C 61.808594 26.324219 62.570312 30.101562 62.570312 34 C 62.570312 37.898438 61.808594 41.675781 60.304688 45.230469 Z M 62.539062 21.824219 C 60.964844 18.097656 58.707031 14.75 55.835938 11.878906 C 52.960938 9.003906 49.613281 6.746094 45.890625 5.171875 C 42.035156 3.539062 37.9375 2.714844 33.710938 2.714844 C 29.488281 2.714844 25.390625 3.539062 21.535156 5.171875 C 17.8125 6.746094 14.464844 9.003906 11.589844 11.878906 C 8.714844 14.75 6.460938 18.097656 4.886719 21.824219 C 3.253906 25.679688 2.425781 29.773438 2.425781 34 C 2.425781 38.222656 3.253906 42.320312 4.886719 46.175781 C 6.460938 49.902344 8.714844 53.246094 11.589844 56.121094 C 14.464844 58.996094 17.8125 61.253906 21.535156 62.828125 C 25.390625 64.457031 29.488281 65.285156 33.710938 65.285156 C 37.9375 65.285156 42.035156 64.457031 45.890625 62.828125 C 49.613281 61.253906 52.960938 58.996094 55.835938 56.121094 C 58.707031 53.246094 60.964844 49.902344 62.539062 46.175781 C 64.171875 42.320312 65 38.222656 65 34 C 65 29.773438 64.171875 25.679688 62.539062 21.824219 " fill-opacity="1" fill-rule="nonzero"/><path fill="#5c998e" d="M 58.070312 44.285156 C 56.738281 47.433594 54.832031 50.257812 52.402344 52.6875 C 49.972656 55.117188 47.144531 57.027344 44 58.355469 C 40.746094 59.734375 37.285156 60.429688 33.710938 60.429688 C 30.140625 60.429688 26.679688 59.734375 23.425781 58.355469 C 20.28125 57.027344 17.453125 55.117188 15.023438 52.6875 C 12.59375 50.257812 10.6875 47.433594 9.355469 44.285156 C 7.980469 41.03125 7.28125 37.570312 7.28125 34 C 7.28125 30.429688 7.980469 26.96875 9.355469 23.714844 C 10.6875 20.566406 12.59375 17.738281 15.023438 15.308594 C 17.453125 12.878906 20.28125 10.972656 23.425781 9.644531 C 26.679688 8.265625 30.140625 7.570312 33.710938 7.570312 C 37.285156 7.570312 40.746094 8.265625 44 9.644531 C 47.144531 10.972656 49.972656 12.878906 52.402344 15.308594 C 54.832031 17.738281 56.738281 20.566406 58.070312 23.714844 C 59.445312 26.96875 60.144531 30.429688 60.144531 34 C 60.144531 37.570312 59.445312 41.03125 58.070312 44.285156 Z M 60.304688 22.769531 C 58.851562 19.332031 56.769531 16.246094 54.117188 13.59375 C 51.464844 10.941406 48.378906 8.859375 44.945312 7.40625 C 41.390625 5.902344 37.609375 5.140625 33.710938 5.140625 C 29.816406 5.140625 26.035156 5.902344 22.480469 7.40625 C 19.046875 8.859375 15.957031 10.941406 13.308594 13.59375 C 10.65625 16.246094 8.574219 19.332031 7.121094 22.769531 C 5.617188 26.324219 4.855469 30.101562 4.855469 34 C 4.855469 37.898438 5.617188 41.675781 7.121094 45.230469 C 8.574219 48.667969 10.65625 51.753906 13.308594 54.40625 C 15.957031 57.058594 19.046875 59.140625 22.480469 60.59375 C 26.035156 62.09375 29.816406 62.859375 33.710938 62.859375 C 37.609375 62.859375 41.390625 62.09375 44.945312 60.59375 C 48.378906 59.140625 51.464844 57.058594 54.117188 54.40625 C 56.769531 51.753906 58.851562 48.667969 60.304688 45.230469 C 61.808594 41.675781 62.570312 37.898438 62.570312 34 C 62.570312 30.101562 61.808594 26.324219 60.304688 22.769531 " fill-opacity="1" fill-rule="nonzero"/><path fill="#ff5e84" d="M 55.832031 43.339844 C 54.625 46.195312 52.894531 48.765625 50.6875 50.972656 C 48.476562 53.179688 45.910156 54.914062 43.054688 56.121094 C 40.101562 57.371094 36.957031 58.003906 33.710938 58.003906 C 30.46875 58.003906 27.324219 57.371094 24.371094 56.121094 C 21.515625 54.914062 18.949219 53.179688 16.738281 50.972656 C 14.53125 48.765625 12.800781 46.195312 11.589844 43.339844 C 10.34375 40.386719 9.710938 37.246094 9.710938 34 C 9.710938 30.753906 10.34375 27.613281 11.589844 24.660156 C 12.800781 21.800781 14.53125 19.234375 16.738281 17.027344 C 18.949219 14.820312 21.515625 13.085938 24.371094 11.878906 C 27.324219 10.628906 30.46875 9.996094 33.710938 9.996094 C 36.957031 9.996094 40.101562 10.628906 43.054688 11.878906 C 45.910156 13.085938 48.476562 14.820312 50.6875 17.027344 C 52.894531 19.234375 54.625 21.800781 55.832031 24.660156 C 57.082031 27.613281 57.714844 30.753906 57.714844 34 C 57.714844 37.246094 57.082031 40.386719 55.832031 43.339844 Z M 52.402344 15.308594 C 49.972656 12.878906 47.144531 10.972656 44 9.644531 C 40.746094 8.265625 37.285156 7.570312 33.710938 7.570312 C 30.140625 7.570312 26.679688 8.265625 23.425781 9.644531 C 20.28125 10.972656 17.453125 12.878906 15.023438 15.308594 C 12.59375 17.738281 10.6875 20.566406 9.355469 23.714844 C 7.980469 26.96875 7.28125 30.429688 7.28125 34 C 7.28125 37.570312 7.980469 41.03125 9.355469 44.285156 C 10.6875 47.433594 12.59375 50.257812 15.023438 52.6875 C 17.453125 55.117188 20.28125 57.027344 23.425781 58.355469 C 26.679688 59.734375 30.140625 60.429688 33.710938 60.429688 C 37.285156 60.429688 40.746094 59.734375 44 58.355469 C 47.144531 57.027344 49.972656 55.117188 52.402344 52.6875 C 54.832031 50.257812 56.738281 47.433594 58.070312 44.285156 C 59.445312 41.03125 60.144531 37.570312 60.144531 34 C 60.144531 30.429688 59.445312 26.96875 58.070312 23.714844 C 56.738281 20.566406 54.832031 17.738281 52.402344 15.308594 " fill-opacity="1" fill-rule="nonzero"/><path fill="#bde1c9" d="M 53.597656 42.394531 C 52.511719 44.960938 50.953125 47.269531 48.96875 49.257812 C 46.984375 51.242188 44.675781 52.800781 42.109375 53.886719 C 39.457031 55.007812 36.632812 55.574219 33.710938 55.574219 C 30.792969 55.574219 27.96875 55.007812 25.316406 53.886719 C 22.75 52.800781 20.441406 51.242188 18.457031 49.257812 C 16.472656 47.269531 14.914062 44.960938 13.828125 42.394531 C 12.707031 39.742188 12.136719 36.917969 12.136719 34 C 12.136719 31.082031 12.707031 28.257812 13.828125 25.605469 C 14.914062 23.039062 16.46875 20.726562 18.457031 18.742188 C 20.441406 16.757812 22.75 15.199219 25.316406 14.113281 C 27.96875 12.992188 30.792969 12.421875 33.710938 12.421875 C 36.628906 12.421875 39.457031 12.992188 42.109375 14.113281 C 44.675781 15.199219 46.984375 16.757812 48.96875 18.742188 C 50.953125 20.726562 52.511719 23.039062 53.597656 25.605469 C 54.71875 28.257812 55.289062 31.082031 55.289062 34 C 55.289062 36.917969 54.71875 39.742188 53.597656 42.394531 Z M 50.6875 17.027344 C 48.476562 14.820312 45.910156 13.085938 43.054688 11.878906 C 40.101562 10.628906 36.957031 9.996094 33.710938 9.996094 C 30.46875 9.996094 27.324219 10.628906 24.371094 11.878906 C 21.515625 13.085938 18.949219 14.820312 16.738281 17.027344 C 14.53125 19.234375 12.800781 21.800781 11.589844 24.660156 C 10.34375 27.613281 9.710938 30.753906 9.710938 34 C 9.710938 37.246094 10.34375 40.386719 11.589844 43.339844 C 12.800781 46.195312 14.53125 48.765625 16.738281 50.972656 C 18.949219 53.179688 21.515625 54.914062 24.371094 56.121094 C 27.324219 57.371094 30.46875 58.003906 33.710938 58.003906 C 36.957031 58.003906 40.101562 57.371094 43.054688 56.121094 C 45.910156 54.914062 48.476562 53.179688 50.6875 50.972656 C 52.894531 48.765625 54.625 46.195312 55.832031 43.339844 C 57.082031 40.386719 57.714844 37.246094 57.714844 34 C 57.714844 30.753906 57.082031 27.613281 55.832031 24.660156 C 54.625 21.800781 52.894531 19.234375 50.6875 17.027344 " fill-opacity="1" fill-rule="nonzero"/><text x="33.710938" y="25.5" text-anchor="middle" fill="#ff5e84" font-family="Poppins, Arial, sans-serif" font-weight="700" font-size="9" letter-spacing="-0.2"><tspan x="33.710938">Women&#x2019;s</tspan><tspan x="33.710938" dy="9.5">Sports</tspan><tspan x="33.710938" dy="9.5">Store</tspan></text></g></g></svg>