<svg xmlns="http://www.w3.org/2000/svg" xmlns:xlink="http://www.w3.org/1999/xlink" width="96" zoomAndPan="magnify" viewBox="0 0 72 72" height="96" preserveAspectRatio="xMidYMid meet" version="1.0"><defs><g/><clipPath id="dce97b1faf"><path d="M 5.214844 5.199219 L 62.210938 5.199219 L 62.210938 62.195312 L 5.214844 62.195312 Z M 5.214844 5.199219 " clip-rule="nonzero"/></clipPath><clipPath id="e816bdbd03"><path d="M 33.714844 5.199219 C 17.976562 5.199219 5.214844 17.957031 5.214844 33.695312 C 5.214844 49.433594 17.976562 62.195312 33.714844 62.195312 C 49.453125 62.195312 62.210938 49.433594 62.210938 33.695312 C 62.210938 17.957031 49.453125 5.199219 33.714844 5.199219 Z M 33.714844 5.199219 " clip-rule="nonzero"/></clipPath><clipPath id="5d9c11a881"><path d="M 0.214844 0.199219 L 57.210938 0.199219 L 57.210938 57.195312 L 0.214844 57.195312 Z M 0.214844 0.199219 " clip-rule="nonzero"/></clipPath><clipPath id="6fb14cfdaa"><path d="M 28.714844 0.199219 C 12.976562 0.199219 0.214844 12.957031 0.214844 28.695312 C 0.214844 44.433594 12.976562 57.195312 28.714844 57.195312 C 44.453125 57.195312 57.210938 44.433594 57.210938 28.695312 C 57.210938 12.957031 44.453125 0.199219 28.714844 0.199219 Z M 28.714844 0.199219 " clip-rule="nonzero"/></clipPath><clipPath id="bbdf385376"><rect x="0" width="58" y="0" height="58"/></clipPath><clipPath id="ca1b7d800e"><path d="M 0 0.285156 L 67.390625 0.285156 L 67.390625 67.679688 L 0 67.679688 Z M 0 0.285156 " clip-rule="nonzero"/></clipPath><clipPath id="dfb62cf4a6"><rect x="0" width="35" y="0" height="24"/></clipPath><clipPath id="34920b5856"><rect x="0" width="68" y="0" height="68"/></clipPath></defs><rect x="-7.2" width="86.4" fill="#ffffff" y="-7.2" height="86.4" fill-opacity="1"/><rect x="-7.2" width="86.4" fill="#ffffff" y="-7.2" height="86.4" fill-opacity="1"/><g transform="matrix(1, 0, 0, 1, 0, 2)"><g clip-path="url(#34920b5856)"><g clip-path="url(#dce97b1faf)"><g clip-path="url(#e816bdbd03)"><g transform="matrix(1, 0, 0, 1, 5, 5)"><g clip-path="url(#bbdf385376)"><g clip-path="url(#5d9c11a881)"><g clip-path="url(#6fb14cfdaa)"><path fill="#000036" d="M 0.214844 0.199219 L 57.210938 0.199219 L 57.210938 57.195312 L 0.214844 57.195312 Z M 0.214844 0.199219 " fill-opacity="1" fill-rule="nonzero"/></g></g></g></g></g></g><g clip-path="url(#ca1b7d800e)"><path fill="#ff5e84" d="M 55.835938 56.121094 C 52.960938 58.996094 49.613281 61.253906 45.890625 62.828125 C 42.035156 64.457031 37.9375 65.285156 33.710938 65.285156 C 29.488281 65.285156 25.390625 64.457031 21.535156 62.828125 C 17.8125 61.253906 14.464844 58.996094 11.589844 56.121094 C 8.714844 53.246094 6.460938 49.902344 4.886719 46.175781 C 3.253906 42.320312 2.425781 38.222656 2.425781 34 C 2.425781 29.773438 3.253906 25.679688 4.886719 21.824219 C 6.460938 18.097656 8.714844 14.75 11.589844 11.878906 C 14.464844 9.003906 17.8125 6.746094 21.535156 5.171875 C 25.390625 3.539062 29.488281 2.714844 33.710938 2.714844 C 37.9375 2.714844 42.035156 3.539062 45.890625 5.171875 C 49.613281 6.746094 52.960938 9.003906 55.835938 11.878906 C 58.707031 14.75 60.964844 18.097656 62.539062 21.824219 C 64.171875 25.679688 65 29.773438 65 34 C 65 38.222656 64.171875 42.320312 62.539062 46.175781 C 60.964844 49.902344 58.707031 53.246094 55.835938 56.121094 Z M 33.710938 0.285156 C 15.09375 0.285156 0 15.378906 0 34 C 0 52.617188 15.09375 67.710938 33.710938 67.710938 C 52.332031 67.710938 67.425781 52.617188 67.425781 34 C 67.425781 15.378906 52.332031 0.285156 33.710938 0.285156 " fill-opacity="1" fill-rule="nonzero"/></g><path fill="#f8f3ec" d="M 60.304688 45.230469 C 58.851562 48.667969 56.769531 51.753906 54.117188 54.40625 C 51.464844 57.058594 48.378906 59.140625 44.945312 60.59375 C 41.390625 62.09375 37.609375 62.859375 33.710938 62.859375 C 29.816406 62.859375 26.035156 62.09375 22.480469 60.59375 C 19.046875 59.140625 15.957031 57.058594 13.308594 54.40625 C 10.65625 51.753906 8.574219 48.667969 7.121094 45.230469 C 5.617188 41.675781 4.855469 37.898438 4.855469 34 C 4.855469 30.101562 5.617188 26.324219 7.121094 22.769531 C 8.574219 19.332031 10.65625 16.246094 13.308594 13.59375 C 15.957031 10.941406 19.046875 8.859375 22.480469 7.40625 C 26.035156 5.902344 29.816406 5.140625 33.710938 5.140625 C 37.609375 5.140625 41.390625 5.902344 44.945312 7.40625 C 48.378906 8.859375 51.464844 10.941406 54.117188 13.59375 C 56.769531 16.246094 58.851562 19.332031 60.304688 22.769531 C 61.808594 26.324219 62.570312 30.101562 62.570312 34 C 62.570312 37.898438 61.808594 41.675781 60.304688 45.230469 Z M 62.539062 21.824219 C 60.964844 18.097656 58.707031 14.75 55.835938 11.878906 C 52.960938 9.003906 49.613281 6.746094 45.890625 5.171875 C 42.035156 3.539062 37.9375 2.714844 33.710938 2.714844 C 29.488281 2.714844 25.390625 3.539062 21.535156 5.171875 C 17.8125 6.746094 14.464844 9.003906 11.589844 11.878906 C 8.714844 14.75 6.460938 18.097656 4.886719 21.824219 C 3.253906 25.679688 2.425781 29.773438 2.425781 34 C 2.425781 38.222656 3.253906 42.320312 4.886719 46.175781 C 6.460938 49.902344 8.714844 53.246094 11.589844 56.121094 C 14.464844 58.996094 17.8125 61.253906 21.535156 62.828125 C 25.390625 64.457031 29.488281 65.285156 33.710938 65.285156 C 37.9375 65.285156 42.035156 64.457031 45.890625 62.828125 C 49.613281 61.253906 52.960938 58.996094 55.835938 56.121094 C 58.707031 53.246094 60.964844 49.902344 62.539062 46.175781 C 64.171875 42.320312 65 38.222656 65 34 C 65 29.773438 64.171875 25.679688 62.539062 21.824219 " fill-opacity="1" fill-rule="nonzero"/><path fill="#5c998e" d="M 58.070312 44.285156 C 56.738281 47.433594 54.832031 50.257812 52.402344 52.6875 C 49.972656 55.117188 47.144531 57.027344 44 58.355469 C 40.746094 59.734375 37.285156 60.429688 33.710938 60.429688 C 30.140625 60.429688 26.679688 59.734375 23.425781 58.355469 C 20.28125 57.027344 17.453125 55.117188 15.023438 52.6875 C 12.59375 50.257812 10.6875 47.433594 9.355469 44.285156 C 7.980469 41.03125 7.28125 37.570312 7.28125 34 C 7.28125 30.429688 7.980469 26.96875 9.355469 23.714844 C 10.6875 20.566406 12.59375 17.738281 15.023438 15.308594 C 17.453125 12.878906 20.28125 10.972656 23.425781 9.644531 C 26.679688 8.265625 30.140625 7.570312 33.710938 7.570312 C 37.285156 7.570312 40.746094 8.265625 44 9.644531 C 47.144531 10.972656 49.972656 12.878906 52.402344 15.308594 C 54.832031 17.738281 56.738281 20.566406 58.070312 23.714844 C 59.445312 26.96875 60.144531 30.429688 60.144531 34 C 60.144531 37.570312 59.445312 41.03125 58.070312 44.285156 Z M 60.304688 22.769531 C 58.851562 19.332031 56.769531 16.246094 54.117188 13.59375 C 51.464844 10.941406 48.378906 8.859375 44.945312 7.40625 C 41.390625 5.902344 37.609375 5.140625 33.710938 5.140625 C 29.816406 5.140625 26.035156 5.902344 22.480469 7.40625 C 19.046875 8.859375 15.957031 10.941406 13.308594 13.59375 C 10.65625 16.246094 8.574219 19.332031 7.121094 22.769531 C 5.617188 26.324219 4.855469 30.101562 4.855469 34 C 4.855469 37.898438 5.617188 41.675781 7.121094 45.230469 C 8.574219 48.667969 10.65625 51.753906 13.308594 54.40625 C 15.957031 57.058594 19.046875 59.140625 22.480469 60.59375 C 26.035156 62.09375 29.816406 62.859375 33.710938 62.859375 C 37.609375 62.859375 41.390625 62.09375 44.945312 60.59375 C 48.378906 59.140625 51.464844 57.058594 54.117188 54.40625 C 56.769531 51.753906 58.851562 48.667969 60.304688 45.230469 C 61.808594 41.675781 62.570312 37.898438 62.570312 34 C 62.570312 30.101562 61.808594 26.324219 60.304688 22.769531 " fill-opacity="1" fill-rule="nonzero"/><path fill="#ff5e84" d="M 55.832031 43.339844 C 54.625 46.195312 52.894531 48.765625 50.6875 50.972656 C 48.476562 53.179688 45.910156 54.914062 43.054688 56.121094 C 40.101562 57.371094 36.957031 58.003906 33.710938 58.003906 C 30.46875 58.003906 27.324219 57.371094 24.371094 56.121094 C 21.515625 54.914062 18.949219 53.179688 16.738281 50.972656 C 14.53125 48.765625 12.800781 46.195312 11.589844 43.339844 C 10.34375 40.386719 9.710938 37.246094 9.710938 34 C 9.710938 30.753906 10.34375 27.613281 11.589844 24.660156 C 12.800781 21.800781 14.53125 19.234375 16.738281 17.027344 C 18.949219 14.820312 21.515625 13.085938 24.371094 11.878906 C 27.324219 10.628906 30.46875 9.996094 33.710938 9.996094 C 36.957031 9.996094 40.101562 10.628906 43.054688 11.878906 C 45.910156 13.085938 48.476562 14.820312 50.6875 17.027344 C 52.894531 19.234375 54.625 21.800781 55.832031 24.660156 C 57.082031 27.613281 57.714844 30.753906 57.714844 34 C 57.714844 37.246094 57.082031 40.386719 55.832031 43.339844 Z M 52.402344 15.308594 C 49.972656 12.878906 47.144531 10.972656 44 9.644531 C 40.746094 8.265625 37.285156 7.570312 33.710938 7.570312 C 30.140625 7.570312 26.679688 8.265625 23.425781 9.644531 C 20.28125 10.972656 17.453125 12.878906 15.023438 15.308594 C 12.59375 17.738281 10.6875 20.566406 9.355469 23.714844 C 7.980469 26.96875 7.28125 30.429688 7.28125 34 C 7.28125 37.570312 7.980469 41.03125 9.355469 44.285156 C 10.6875 47.433594 12.59375 50.257812 15.023438 52.6875 C 17.453125 55.117188 20.28125 57.027344 23.425781 58.355469 C 26.679688 59.734375 30.140625 60.429688 33.710938 60.429688 C 37.285156 60.429688 40.746094 59.734375 44 58.355469 C 47.144531 57.027344 49.972656 55.117188 52.402344 52.6875 C 54.832031 50.257812 56.738281 47.433594 58.070312 44.285156 C 59.445312 41.03125 60.144531 37.570312 60.144531 34 C 60.144531 30.429688 59.445312 26.96875 58.070312 23.714844 C 56.738281 20.566406 54.832031 17.738281 52.402344 15.308594 " fill-opacity="1" fill-rule="nonzero"/><path fill="#bde1c9" d="M 53.597656 42.394531 C 52.511719 44.960938 50.953125 47.269531 48.96875 49.257812 C 46.984375 51.242188 44.675781 52.800781 42.109375 53.886719 C 39.457031 55.007812 36.632812 55.574219 33.710938 55.574219 C 30.792969 55.574219 27.96875 55.007812 25.316406 53.886719 C 22.75 52.800781 20.441406 51.242188 18.457031 49.257812 C 16.472656 47.269531 14.914062 44.960938 13.828125 42.394531 C 12.707031 39.742188 12.136719 36.917969 12.136719 34 C 12.136719 31.082031 12.707031 28.257812 13.828125 25.605469 C 14.914062 23.039062 16.46875 20.726562 18.457031 18.742188 C 20.441406 16.757812 22.75 15.199219 25.316406 14.113281 C 27.96875 12.992188 30.792969 12.421875 33.710938 12.421875 C 36.628906 12.421875 39.457031 12.992188 42.109375 14.113281 C 44.675781 15.199219 46.984375 16.757812 48.96875 18.742188 C 50.953125 20.726562 52.511719 23.039062 53.597656 25.605469 C 54.71875 28.257812 55.289062 31.082031 55.289062 34 C 55.289062 36.917969 54.71875 39.742188 53.597656 42.394531 Z M 50.6875 17.027344 C 48.476562 14.820312 45.910156 13.085938 43.054688 11.878906 C 40.101562 10.628906 36.957031 9.996094 33.710938 9.996094 C 30.46875 9.996094 27.324219 10.628906 24.371094 11.878906 C 21.515625 13.085938 18.949219 14.820312 16.738281 17.027344 C 14.53125 19.234375 12.800781 21.800781 11.589844 24.660156 C 10.34375 27.613281 9.710938 30.753906 9.710938 34 C 9.710938 37.246094 10.34375 40.386719 11.589844 43.339844 C 12.800781 46.195312 14.53125 48.765625 16.738281 50.972656 C 18.949219 53.179688 21.515625 54.914062 24.371094 56.121094 C 27.324219 57.371094 30.46875 58.003906 33.710938 58.003906 C 36.957031 58.003906 40.101562 57.371094 43.054688 56.121094 C 45.910156 54.914062 48.476562 53.179688 50.6875 50.972656 C 52.894531 48.765625 54.625 46.195312 55.832031 43.339844 C 57.082031 40.386719 57.714844 37.246094 57.714844 34 C 57.714844 30.753906 57.082031 27.613281 55.832031 24.660156 C 54.625 21.800781 52.894531 19.234375 50.6875 17.027344 " fill-opacity="1" fill-rule="nonzero"/><g transform="matrix(1, 0, 0, 1, 17, 22)"><g clip-path="url(#dfb62cf4a6)"><g fill="#ff5e84" fill-opacity="1"><g transform="translate(0.878108, 7.63713)"><g><path d="M 6.765625 -4.546875 L 5.65625 0 L 4.09375 0 L 3.46875 -2.78125 L 2.828125 0 L 1.28125 0 L 0.171875 -4.546875 L 1.546875 -4.546875 L 2.078125 -1.4375 L 2.78125 -4.546875 L 4.171875 -4.546875 L 4.875 -1.46875 L 5.40625 -4.546875 Z M 6.765625 -4.546875 "/></g></g></g><g fill="#ff5e84" fill-opacity="1"><g transform="translate(7.827135, 7.63713)"><g><path d="M 2.046875 0.046875 C 1.679688 0.046875 1.351562 -0.0234375 1.0625 -0.171875 C 0.78125 -0.328125 0.554688 -0.546875 0.390625 -0.828125 C 0.234375 -1.109375 0.15625 -1.4375 0.15625 -1.8125 C 0.15625 -2.1875 0.238281 -2.515625 0.40625 -2.796875 C 0.570312 -3.078125 0.796875 -3.289062 1.078125 -3.4375 C 1.367188 -3.59375 1.691406 -3.671875 2.046875 -3.671875 C 2.410156 -3.671875 2.734375 -3.59375 3.015625 -3.4375 C 3.304688 -3.289062 3.535156 -3.078125 3.703125 -2.796875 C 3.867188 -2.515625 3.953125 -2.1875 3.953125 -1.8125 C 3.953125 -1.4375 3.867188 -1.109375 3.703125 -0.828125 C 3.535156 -0.546875 3.304688 -0.328125 3.015625 -0.171875 C 2.734375 -0.0234375 2.410156 0.046875 2.046875 0.046875 Z M 2.046875 -1.046875 C 2.222656 -1.046875 2.367188 -1.113281 2.484375 -1.25 C 2.609375 -1.382812 2.671875 -1.570312 2.671875 -1.8125 C 2.671875 -2.0625 2.609375 -2.25 2.484375 -2.375 C 2.367188 -2.5 2.222656 -2.5625 2.046875 -2.5625 C 1.878906 -2.5625 1.738281 -2.5 1.625 -2.375 C 1.507812 -2.25 1.453125 -2.0625 1.453125 -1.8125 C 1.453125 -1.5625 1.503906 -1.367188 1.609375 -1.234375 C 1.722656 -1.109375 1.867188 -1.046875 2.046875 -1.046875 Z M 2.046875 -1.046875 "/></g></g></g><g fill="#ff5e84" fill-opacity="1"><g transform="translate(11.934549, 7.63713)"><g><path d="M 5.09375 -3.65625 C 5.550781 -3.65625 5.910156 -3.515625 6.171875 -3.234375 C 6.429688 -2.960938 6.5625 -2.585938 6.5625 -2.109375 L 6.5625 0 L 5.296875 0 L 5.296875 -1.9375 C 5.296875 -2.132812 5.238281 -2.285156 5.125 -2.390625 C 5.019531 -2.503906 4.875 -2.5625 4.6875 -2.5625 C 4.5 -2.5625 4.351562 -2.503906 4.25 -2.390625 C 4.144531 -2.285156 4.09375 -2.132812 4.09375 -1.9375 L 4.09375 0 L 2.828125 0 L 2.828125 -1.9375 C 2.828125 -2.132812 2.773438 -2.285156 2.671875 -2.390625 C 2.566406 -2.503906 2.421875 -2.5625 2.234375 -2.5625 C 2.046875 -2.5625 1.894531 -2.503906 1.78125 -2.390625 C 1.675781 -2.285156 1.625 -2.132812 1.625 -1.9375 L 1.625 0 L 0.359375 0 L 0.359375 -3.625 L 1.625 -3.625 L 1.625 -3.140625 C 1.738281 -3.296875 1.882812 -3.421875 2.0625 -3.515625 C 2.238281 -3.609375 2.441406 -3.65625 2.671875 -3.65625 C 2.941406 -3.65625 3.179688 -3.59375 3.390625 -3.46875 C 3.597656 -3.351562 3.765625 -3.191406 3.890625 -2.984375 C 4.015625 -3.179688 4.179688 -3.34375 4.390625 -3.46875 C 4.597656 -3.59375 4.832031 -3.65625 5.09375 -3.65625 Z M 5.09375 -3.65625 "/></g></g></g><g fill="#ff5e84" fill-opacity="1"><g transform="translate(18.825451, 7.63713)"><g><path d="M 3.8125 -1.859375 C 3.8125 -1.753906 3.804688 -1.65625 3.796875 -1.5625 L 1.40625 -1.5625 C 1.414062 -1.363281 1.46875 -1.210938 1.5625 -1.109375 C 1.664062 -1.015625 1.789062 -0.96875 1.9375 -0.96875 C 2.15625 -0.96875 2.304688 -1.0625 2.390625 -1.25 L 3.75 -1.25 C 3.6875 -1 3.570312 -0.773438 3.40625 -0.578125 C 3.25 -0.390625 3.046875 -0.238281 2.796875 -0.125 C 2.554688 -0.0078125 2.289062 0.046875 2 0.046875 C 1.632812 0.046875 1.3125 -0.0234375 1.03125 -0.171875 C 0.757812 -0.328125 0.546875 -0.546875 0.390625 -0.828125 C 0.234375 -1.109375 0.15625 -1.4375 0.15625 -1.8125 C 0.15625 -2.1875 0.234375 -2.515625 0.390625 -2.796875 C 0.546875 -3.078125 0.757812 -3.289062 1.03125 -3.4375 C 1.3125 -3.59375 1.632812 -3.671875 2 -3.671875 C 2.351562 -3.671875 2.664062 -3.59375 2.9375 -3.4375 C 3.21875 -3.289062 3.429688 -3.082031 3.578125 -2.8125 C 3.734375 -2.539062 3.8125 -2.222656 3.8125 -1.859375 Z M 2.53125 -2.171875 C 2.53125 -2.328125 2.476562 -2.445312 2.375 -2.53125 C 2.269531 -2.625 2.140625 -2.671875 1.984375 -2.671875 C 1.828125 -2.671875 1.695312 -2.625 1.59375 -2.53125 C 1.5 -2.445312 1.4375 -2.328125 1.40625 -2.171875 Z M 2.53125 -2.171875 "/></g></g></g><g fill="#ff5e84" fill-opacity="1"><g transform="translate(22.803707, 7.63713)"><g><path d="M 2.734375 -3.65625 C 3.148438 -3.65625 3.476562 -3.515625 3.71875 -3.234375 C 3.96875 -2.953125 4.09375 -2.578125 4.09375 -2.109375 L 4.09375 0 L 2.828125 0 L 2.828125 -1.9375 C 2.828125 -2.144531 2.769531 -2.304688 2.65625 -2.421875 C 2.550781 -2.546875 2.410156 -2.609375 2.234375 -2.609375 C 2.046875 -2.609375 1.894531 -2.546875 1.78125 -2.421875 C 1.675781 -2.304688 1.625 -2.144531 1.625 -1.9375 L 1.625 0 L 0.359375 0 L 0.359375 -3.625 L 1.625 -3.625 L 1.625 -3.109375 C 1.738281 -3.265625 1.890625 -3.394531 2.078125 -3.5 C 2.265625 -3.601562 2.484375 -3.65625 2.734375 -3.65625 Z M 2.734375 -3.65625 "/></g></g></g><g fill="#ff5e84" fill-opacity="1"><g transform="translate(27.234032, 7.63713)"><g><path d="M 0.671875 -4.546875 L 1.953125 -4.546875 L 1.203125 -2.734375 L 0.359375 -2.734375 Z M 0.671875 -4.546875 "/></g></g></g><g fill="#ff5e84" fill-opacity="1"><g transform="translate(29.468567, 7.63713)"><g><path d="M 1.90625 0.046875 C 1.570312 0.046875 1.273438 -0.00390625 1.015625 -0.109375 C 0.765625 -0.222656 0.566406 -0.375 0.421875 -0.5625 C 0.273438 -0.757812 0.191406 -0.976562 0.171875 -1.21875 L 1.40625 -1.21875 C 1.414062 -1.101562 1.46875 -1.015625 1.5625 -0.953125 C 1.65625 -0.890625 1.765625 -0.859375 1.890625 -0.859375 C 1.992188 -0.859375 2.078125 -0.878906 2.140625 -0.921875 C 2.203125 -0.960938 2.234375 -1.015625 2.234375 -1.078125 C 2.234375 -1.171875 2.179688 -1.238281 2.078125 -1.28125 C 1.984375 -1.320312 1.820312 -1.367188 1.59375 -1.421875 C 1.332031 -1.472656 1.113281 -1.53125 0.9375 -1.59375 C 0.769531 -1.664062 0.625 -1.773438 0.5 -1.921875 C 0.375 -2.066406 0.3125 -2.265625 0.3125 -2.515625 C 0.3125 -2.722656 0.367188 -2.914062 0.484375 -3.09375 C 0.597656 -3.269531 0.765625 -3.410156 0.984375 -3.515625 C 1.210938 -3.617188 1.488281 -3.671875 1.8125 -3.671875 C 2.28125 -3.671875 2.648438 -3.550781 2.921875 -3.3125 C 3.203125 -3.082031 3.363281 -2.78125 3.40625 -2.40625 L 2.265625 -2.40625 C 2.234375 -2.519531 2.175781 -2.609375 2.09375 -2.671875 C 2.019531 -2.734375 1.914062 -2.765625 1.78125 -2.765625 C 1.675781 -2.765625 1.597656 -2.742188 1.546875 -2.703125 C 1.492188 -2.660156 1.46875 -2.609375 1.46875 -2.546875 C 1.46875 -2.453125 1.515625 -2.382812 1.609375 -2.34375 C 1.710938 -2.300781 1.875 -2.253906 2.09375 -2.203125 C 2.351562 -2.148438 2.570312 -2.085938 2.75 -2.015625 C 2.925781 -1.953125 3.078125 -1.84375 3.203125 -1.6875 C 3.335938 -1.53125 3.40625 -1.320312 3.40625 -1.0625 C 3.40625 -0.851562 3.34375 -0.664062 3.21875 -0.5 C 3.101562 -0.332031 2.929688 -0.195312 2.703125 -0.09375 C 2.472656 0 2.207031 0.046875 1.90625 0.046875 Z M 1.90625 0.046875 "/></g></g></g><g fill="#ff5e84" fill-opacity="1"><g transform="translate(6.116951, 14.095286)"><g><path d="M 2.078125 0.046875 C 1.546875 0.046875 1.109375 -0.078125 0.765625 -0.328125 C 0.429688 -0.578125 0.25 -0.9375 0.21875 -1.40625 L 1.578125 -1.40625 C 1.585938 -1.25 1.632812 -1.132812 1.71875 -1.0625 C 1.800781 -0.988281 1.90625 -0.953125 2.03125 -0.953125 C 2.144531 -0.953125 2.238281 -0.976562 2.3125 -1.03125 C 2.394531 -1.09375 2.4375 -1.175781 2.4375 -1.28125 C 2.4375 -1.414062 2.375 -1.519531 2.25 -1.59375 C 2.125 -1.664062 1.921875 -1.75 1.640625 -1.84375 C 1.335938 -1.9375 1.09375 -2.03125 0.90625 -2.125 C 0.726562 -2.21875 0.570312 -2.351562 0.4375 -2.53125 C 0.300781 -2.707031 0.234375 -2.941406 0.234375 -3.234375 C 0.234375 -3.523438 0.304688 -3.773438 0.453125 -3.984375 C 0.597656 -4.191406 0.800781 -4.347656 1.0625 -4.453125 C 1.320312 -4.566406 1.613281 -4.625 1.9375 -4.625 C 2.46875 -4.625 2.890625 -4.5 3.203125 -4.25 C 3.523438 -4 3.695312 -3.648438 3.71875 -3.203125 L 2.34375 -3.203125 C 2.34375 -3.335938 2.300781 -3.441406 2.21875 -3.515625 C 2.132812 -3.585938 2.03125 -3.625 1.90625 -3.625 C 1.8125 -3.625 1.734375 -3.59375 1.671875 -3.53125 C 1.617188 -3.476562 1.59375 -3.398438 1.59375 -3.296875 C 1.59375 -3.210938 1.625 -3.140625 1.6875 -3.078125 C 1.75 -3.015625 1.828125 -2.957031 1.921875 -2.90625 C 2.023438 -2.863281 2.175781 -2.8125 2.375 -2.75 C 2.664062 -2.644531 2.90625 -2.539062 3.09375 -2.4375 C 3.28125 -2.34375 3.441406 -2.207031 3.578125 -2.03125 C 3.710938 -1.863281 3.78125 -1.644531 3.78125 -1.375 C 3.78125 -1.101562 3.710938 -0.859375 3.578125 -0.640625 C 3.441406 -0.429688 3.242188 -0.265625 2.984375 -0.140625 C 2.722656 -0.015625 2.421875 0.046875 2.078125 0.046875 Z M 2.078125 0.046875 "/></g></g></g><g fill="#ff5e84" fill-opacity="1"><g transform="translate(10.121034, 14.095286)"><g><path d="M 1.625 -3.109375 C 1.726562 -3.285156 1.867188 -3.421875 2.046875 -3.515625 C 2.222656 -3.617188 2.4375 -3.671875 2.6875 -3.671875 C 2.96875 -3.671875 3.222656 -3.59375 3.453125 -3.4375 C 3.691406 -3.289062 3.878906 -3.078125 4.015625 -2.796875 C 4.160156 -2.515625 4.234375 -2.1875 4.234375 -1.8125 C 4.234375 -1.4375 4.160156 -1.109375 4.015625 -0.828125 C 3.878906 -0.546875 3.691406 -0.328125 3.453125 -0.171875 C 3.222656 -0.0234375 2.96875 0.046875 2.6875 0.046875 C 2.4375 0.046875 2.222656 0 2.046875 -0.09375 C 1.867188 -0.195312 1.726562 -0.332031 1.625 -0.5 L 1.625 1.734375 L 0.359375 1.734375 L 0.359375 -3.625 L 1.625 -3.625 Z M 2.9375 -1.8125 C 2.9375 -2.050781 2.875 -2.234375 2.75 -2.359375 C 2.625 -2.492188 2.46875 -2.5625 2.28125 -2.5625 C 2.09375 -2.5625 1.9375 -2.492188 1.8125 -2.359375 C 1.6875 -2.222656 1.625 -2.039062 1.625 -1.8125 C 1.625 -1.570312 1.6875 -1.382812 1.8125 -1.25 C 1.9375 -1.125 2.09375 -1.0625 2.28125 -1.0625 C 2.46875 -1.0625 2.625 -1.128906 2.75 -1.265625 C 2.875 -1.398438 2.9375 -1.582031 2.9375 -1.8125 Z M 2.9375 -1.8125 "/></g></g></g><g fill="#ff5e84" fill-opacity="1"><g transform="translate(14.512614, 14.095286)"><g><path d="M 2.046875 0.046875 C 1.679688 0.046875 1.351562 -0.0234375 1.0625 -0.171875 C 0.78125 -0.328125 0.554688 -0.546875 0.390625 -0.828125 C 0.234375 -1.109375 0.15625 -1.4375 0.15625 -1.8125 C 0.15625 -2.1875 0.238281 -2.515625 0.40625 -2.796875 C 0.570312 -3.078125 0.796875 -3.289062 1.078125 -3.4375 C 1.367188 -3.59375 1.691406 -3.671875 2.046875 -3.671875 C 2.410156 -3.671875 2.734375 -3.59375 3.015625 -3.4375 C 3.304688 -3.289062 3.535156 -3.078125 3.703125 -2.796875 C 3.867188 -2.515625 3.953125 -2.1875 3.953125 -1.8125 C 3.953125 -1.4375 3.867188 -1.109375 3.703125 -0.828125 C 3.535156 -0.546875 3.304688 -0.328125 3.015625 -0.171875 C 2.734375 -0.0234375 2.410156 0.046875 2.046875 0.046875 Z M 2.046875 -1.046875 C 2.222656 -1.046875 2.367188 -1.113281 2.484375 -1.25 C 2.609375 -1.382812 2.671875 -1.570312 2.671875 -1.8125 C 2.671875 -2.0625 2.609375 -2.25 2.484375 -2.375 C 2.367188 -2.5 2.222656 -2.5625 2.046875 -2.5625 C 1.878906 -2.5625 1.738281 -2.5 1.625 -2.375 C 1.507812 -2.25 1.453125 -2.0625 1.453125 -1.8125 C 1.453125 -1.5625 1.503906 -1.367188 1.609375 -1.234375 C 1.722656 -1.109375 1.867188 -1.046875 2.046875 -1.046875 Z M 2.046875 -1.046875 "/></g></g></g><g fill="#ff5e84" fill-opacity="1"><g transform="translate(18.620028, 14.095286)"><g><path d="M 1.625 -2.984375 C 1.769531 -3.191406 1.941406 -3.351562 2.140625 -3.46875 C 2.347656 -3.59375 2.566406 -3.65625 2.796875 -3.65625 L 2.796875 -2.296875 L 2.4375 -2.296875 C 2.164062 -2.296875 1.960938 -2.242188 1.828125 -2.140625 C 1.691406 -2.035156 1.625 -1.847656 1.625 -1.578125 L 1.625 0 L 0.359375 0 L 0.359375 -3.625 L 1.625 -3.625 Z M 1.625 -2.984375 "/></g></g></g><g fill="#ff5e84" fill-opacity="1"><g transform="translate(21.877569, 14.095286)"><g><path d="M 3.8125 -1.859375 C 3.8125 -1.753906 3.804688 -1.65625 3.796875 -1.5625 L 1.40625 -1.5625 C 1.414062 -1.363281 1.46875 -1.210938 1.5625 -1.109375 C 1.664062 -1.015625 1.789062 -0.96875 1.9375 -0.96875 C 2.15625 -0.96875 2.304688 -1.0625 2.390625 -1.25 L 3.75 -1.25 C 3.6875 -1 3.570312 -0.773438 3.40625 -0.578125 C 3.25 -0.390625 3.046875 -0.238281 2.796875 -0.125 C 2.554688 -0.0078125 2.289062 0.046875 2 0.046875 C 1.632812 0.046875 1.3125 -0.0234375 1.03125 -0.171875 C 0.757812 -0.328125 0.546875 -0.546875 0.390625 -0.828125 C 0.234375 -1.109375 0.15625 -1.4375 0.15625 -1.8125 C 0.15625 -2.1875 0.234375 -2.515625 0.390625 -2.796875 C 0.546875 -3.078125 0.757812 -3.289062 1.03125 -3.4375 C 1.3125 -3.59375 1.632812 -3.671875 2 -3.671875 C 2.351562 -3.671875 2.664062 -3.59375 2.9375 -3.4375 C 3.21875 -3.289062 3.429688 -3.082031 3.578125 -2.8125 C 3.734375 -2.539062 3.8125 -2.222656 3.8125 -1.859375 Z M 2.53125 -2.171875 C 2.53125 -2.328125 2.476562 -2.445312 2.375 -2.53125 C 2.269531 -2.625 2.140625 -2.671875 1.984375 -2.671875 C 1.828125 -2.671875 1.695312 -2.625 1.59375 -2.53125 C 1.5 -2.445312 1.4375 -2.328125 1.40625 -2.171875 Z M 2.53125 -2.171875 "/></g></g></g></g></g></g></g></svg>